PathFileType	4	(X/Y/Z)	RBDS011\RBDS011runT45.trc
DataRate	CameraRate	NumFrames	NumMarkers	Units	OrigDataRate	OrigDataStartFrame	OrigNumFrames
150.000000	150.000000	4	33	mm	150.000000	2250	4500
Frame#	Time	L.ASIS			L.Heel.Bottom			L.Heel.Lateral			L.Heel.Top			L.Iliac.Crest			L.MT1			L.MT5			L.PSIS			L.Shank.Bottom.Lateral			L.Shank.Bottom.Medial			L.Shank.Top.Lateral			L.Shank.Top.Medial			L.Thigh.Bottom.Lateral			L.Thigh.Bottom.Medial			L.Thigh.Top.Lateral			L.Thigh.Top.Medial			R.ASIS			R.ASY			R.Heel.Bottom			R.Heel.Lateral			R.Heel.Top			R.Iliac.Crest			R.MT1			R.MT5			R.PSIS			R.Shank.Bottom.Lateral			R.Shank.Bottom.Medial			R.Shank.Top.Lateral			R.Shank.Top.Medial			R.Thigh.Bottom.Lateral			R.Thigh.Bottom.Medial			R.Thigh.Top.Lateral			R.Thigh.Top.Medial			
		X1	Y1	Z1	X2	Y2	Z2	X3	Y3	Z3	X4	Y4	Z4	X5	Y5	Z5	X6	Y6	Z6	X7	Y7	Z7	X8	Y8	Z8	X9	Y9	Z9	X10	Y10	Z10	X11	Y11	Z11	X12	Y12	Z12	X13	Y13	Z13	X14	Y14	Z14	X15	Y15	Z15	X16	Y16	Z16	X17	Y17	Z17	X18	Y18	Z18	X19	Y19	Z19	X20	Y20	Z20	X21	Y21	Z21	X22	Y22	Z22	X23	Y23	Z23	X24	Y24	Z24	X25	Y25	Z25	X26	Y26	Z26	X27	Y27	Z27	X28	Y28	Z28	X29	Y29	Z29	X30	Y30	Z30	X31	Y31	Z31	X32	Y32	Z32	X33	Y33	Z33	

2251	15	2407.264181481379	986.6594526642002	911.5793895601449	2528.873907698437	32.89908990241881	998.0389924184577	2548.444392301765	42.75392218476969	955.0797215132148	2528.934685709582	80.53201948105622	989.8187821681839	2343.542992111066	1064.974689043661	882.7881734765126	2746.234621779928	96.29710098733547	1018.155501520286	2715.707546245572	63.48512487246266	911.1541699363289	2253.266706536597	1020.707101699079	1001.828159274114	2556.711914182742	182.0289866440999	922.3822843189084	2523.188428844263	180.3960297810023	966.2607474527334	2531.49272612529	256.2599294039854	906.720597677216	2499.275707413276	256.1094885709084	950.3181447958052	2468.275223841957	625.4381972754957	865.7097720100782	2418.142272418097	595.0373276661079	908.5023334619273	2402.601832147819	713.6784843486035	855.3983738442763	2355.284416060485	685.642840358123	895.7824200450477	2438.203911919737	955.6406046033943	1152.888787896103	1789.743180408628	373.2286174741649	1125.064229519997	1771.56150524942	562.9458863161519	1101.234661169406	1784.3263698301	538.2530181080986	1146.336235164893	1817.053349879036	541.5188983081644	1104.475002720034	2403.188808864478	1029.078793209973	1190.50309943816	1726.393004936543	341.3236072695623	1078.732182473959	1725.747688202049	377.1051772651115	1190.425309947004	2269.691975606549	1016.664684814652	1103.105422123195	1881.478500663771	493.8377094015966	1157.591403483042	1884.670238517021	525.0562904687332	1116.813867664483	1965.441311694912	500.7448255104587	1167.842244136038	1964.17958604618	535.528520981678	1127.688046647765	2264.436112885277	580.4902876951205	1184.224200894526	2208.716103652197	599.7149132976831	1140.396182660579	2281.817761872569	686.8266866893631	1204.474280196285	2227.25533286514	705.7956922408046	1167.10189551413	
2252	15.00666666666667	2406.054568844135	982.8935849444719	909.5123926566038	2505.569963219026	31.73272405967929	998.7072897745534	2525.640420921638	40.98275454455246	955.8288492534742	2508.326744864949	79.29882816331585	991.163680011928	2341.346328761009	1059.298942146715	881.9991373942534	2726.005899628643	84.19161658828033	1019.195409140717	2693.847813076238	55.52752353643287	911.3503266670557	2252.399888762652	1015.172894428368	1002.928412748344	2541.631558531749	177.2735478177108	923.2137116304594	2507.681678067454	177.4845961601153	966.6263028970226	2519.910843329658	252.3908366817799	906.7396547279606	2487.487166488537	253.926508258486	950.0255101006003	2466.765385532732	621.6060848384557	865.4908889196412	2416.789146665084	591.140639030699	908.3808482139859	2401.021513648842	709.8570475860051	855.4541862141521	2353.832017268921	681.6738236656095	895.8527849292951	2438.911829881295	952.3411159289005	1151.691770551578	1801.075079460392	384.1567777992495	1124.808355576632	1789.020409312722	574.1755254136114	1097.037136013075	1800.960862849331	549.9090945200401	1142.564983027578	1833.815625115761	551.3074703119554	1100.518188381441	2404.840264398922	1024.607628808874	1189.906405102382	1736.855215745894	353.1158015291502	1079.127612450395	1737.176342314079	391.5332873988317	1190.284617666144	2269.949558196956	1010.908894195924	1104.140602164751	1896.356349217323	501.7920293717009	1155.787540118648	1901.265421447666	532.0023941764213	1114.341210470811	1980.369831492122	505.3374857750659	1166.700866776813	1980.991033827392	539.0982565761781	1125.720656404813	2272.700846259264	574.0990183329229	1185.819674350273	2217.634153938759	591.1678846252073	1140.310760299643	2286.613987614288	681.1834825384362	1205.009686324677	2232.56896604239	698.2450820819053	1165.898849746594	
2253	15.01333333333333	2404.618437992832	978.8675759022184	907.4906978747827	2479.990175315901	31.1666429200397	999.4718823281901	2500.650722966339	40.11204416945083	956.7836223696904	2485.455010322576	78.67808913397425	992.9062291827711	2339.108971327716	1053.264172586486	881.2828463319451	2703.341797938417	72.62979274253225	1020.987825230861	2669.774298988966	48.71834532397128	912.1238503373249	2251.402525541405	1009.759421301514	1004.021948416443	2525.024250826616	173.1871929413528	924.5680377599506	2490.571536275531	175.5398138488342	967.3540406441067	2507.336587923713	249.1305917226038	907.1033085283424	2474.660822499168	252.6263420987709	949.9462892448557	2465.268248728614	617.7369275898744	865.0391408263202	2415.630677100436	587.2582934742886	908.2819450743946	2399.377697099779	705.944255489682	855.3391363441183	2352.444791328478	677.6376524402522	895.9419325549211	2439.340382736854	948.6560717643133	1150.320022547206	1814.121606760596	393.1535319717233	1124.272550887754	1807.332661834799	583.35185362999	1093.465664728418	1818.624825728271	559.3629736797517	1139.278983276556	1851.484294283591	559.1916117824007	1097.049484305223	2406.755549636697	1019.792569333425	1189.043710676473	1749.108491931847	362.9294686288812	1079.173678958257	1750.476042667794	403.391048809451	1189.84814853649	2270.045637737554	1005.242149199184	1105.262980217846	1912.415910468544	508.0408533628301	1154.224888783074	1918.89623703964	537.3075813389963	1112.239741998156	1996.334440595728	508.5088108206791	1165.858378028094	1998.692856373165	541.2886339710287	1124.181517970928	2281.369728189911	567.7685358535479	1187.444664839173	2226.896403277719	582.5942797883451	1140.441039819621	2291.644857461657	675.4768570366062	1205.580169672359	2238.108282636379	690.5540032781453	1164.842664672076	
2254	15.02	2402.92340811826	974.6684152526688	905.5643551509177	2452.698050154786	31.19953148687965	1000.328370152045	2473.983690616349	40.15677091357877	957.9170313597104	2460.730364094788	78.66319158010913	994.9864628835945	2336.886641550396	1046.985406694177	880.6432013651721	2678.6353571063	62.24282806842577	1023.296457508964	2643.888461834314	43.37212845832347	913.3391687072973	2250.249165046669	1004.604382165926	1005.045091819095	2507.071606898298	169.9430137594915	926.3774156253304	2472.10074613472	174.6749117646981	968.4136950046668	2493.846828133736	246.5746385487338	907.8134496201128	2460.920062764534	252.2536820372145	950.1106014627992	2463.598494670359	613.8379481745593	864.424858826245	2414.458701954094	583.4394455536286	908.2796857464778	2397.537460544362	701.9802229059666	855.0821651246675	2350.973232828254	673.6212680533747	896.0908510900093	2439.452428387662	944.6428580639683	1148.785797705277	1828.736007980354	400.1273511819398	1123.488761065978	1826.155643726566	590.4510965082682	1090.601495930038	1836.976226583312	566.5901357495399	1136.577696837428	1869.753200900558	565.1906627722632	1094.167714377897	2408.75182778548	1014.706852596853	1187.959950747477	1763.043904998075	370.6304792264356	1078.874296010801	1765.43122640555	412.5012816659898	1189.159885582688	2269.908684494364	999.8105704559955	1106.383587561785	1929.43921080667	512.5736409131491	1152.945462180762	1937.333607107353	541.0195825301039	1110.571521442897	2013.171730419263	510.2887234460916	1165.326598239283	2017.102858361608	542.2074903277796	1123.110127107243	2290.636495155579	561.5772491906611	1189.081523061228	2236.613941325162	574.065111714292	1140.874669655082	2297.073243355676	669.7617785262455	1206.213841624855	2243.961525183093	682.7543372675957	1164.081834122361	
